Description

Dinosaurs come alive like never before in this costly computer-animated film from Disney. After a breathtaking opening (a dino egg is kidnapped), the film changes style; realistic dinosaurs are given human characteristics and voices. The kidnapped egg grows into an iguanodon named Aladar (voiced by DB Sweeney), who is raised by lemurs (shades of Tarzan) on a lush island void of other dinosaurs. When a meteorite destroys their island home in a thrilling sequence, the lemur family and Aladar become part of a dinosaur troop roaming the mainland deserts looking for the lush nesting grounds


Format : MPEG-4
Format profile : Base Media / Version 2
Codec ID : mp42
File size : 799 MiB
Duration : 1h 18mn
Overall bit rate : 1 419 Kbps
Encoded date : UTC 2009-08-03 07:48:36
Tagged date : UTC 2009-08-03 11:33:22
Writing application : HandBrake 0.9.3 2008112300

Video
ID : 1
Format : AVC
Format/Info : Advanced Video Codec

Format profile : Main@L4.0
Format settings, CABAC : Yes
Format settings, ReFrames : 3 frames
Codec ID : avc1
Codec ID/Info : Advanced Video Coding
Duration : 1h 18mn
Bit rate mode : Variable
Bit rate : 1 256 Kbps
Width : 702 pixels
Height : 552 pixels
Display aspect ratio : 16/9
Frame rate mode : Variable
Frame rate : 25.000 fps
Minimum frame rate : 12.500 fps
Maximum frame rate : 25.000 fps
Resolution : 24 bits
Colorimetry : 4:2:0
Scan type : Progressive
Bits/(Pixel*Frame) : 0.130
Stream size : 707 MiB (88%)
Writing library : x264 core 65

Audio
ID : 2
Format : AAC
Format/Info : Advanced Audio Codec
Format version : Version 4
Format profile : LC
Format settings, SBR : No
Codec ID : 40
Duration : 1h 18mn
Bit rate mode : Variable
Bit rate : 160 Kbps
Maximum bit rate : 235 Kbps
Channel(s) : 2 channels
Channel positions : L R
Sampling rate : 48.0 KHz
Resolution : 16 bits
Stream size : 89.9 MiB (11%)
Language : English
Encoded date : UTC 2009-08-03 07:48:36
Tagged date : UTC 2009-08-03 11:33:21